<svg xmlns="http://www.w3.org/2000/svg" enable-background="new 0 0 24 24" viewBox="0 0 24 24"><path d="M3.249,19.75c-0.024,0-0.049-0.001-0.073-0.004c-1.021-0.1-2.993-0.885-3.153-3.14C-0.036,12.483,0.041,5.789,0.042,5.722C0.112,4.979,0.578,4.25,1.443,4.25h17.036c1.63,0.188,4.723,1.428,5.393,4.81c0.371,1.871-0.068,3.645-1.236,4.992c-1.198,1.383-3.048,2.181-5.153,2.243c-0.2,1.872-1.316,3.095-3.143,3.4c-0.039,0.006-0.079,0.01-0.119,0.01c-3.545,0.023-10.97,0.045-10.97,0.045C3.25,19.75,3.25,19.75,3.249,19.75z M1.537,5.816c0.004,0-0.073,6.668-0.016,10.727c0.101,1.408,1.49,1.669,1.772,1.707c0.627-0.002,7.457-0.022,10.857-0.045c0.538-0.093,1.913-0.405,1.863-2.651c-0.004-0.208,0.078-0.409,0.228-0.555c0.15-0.146,0.358-0.229,0.562-0.211c1.95,0.107,3.664-0.523,4.699-1.719c0.858-0.99,1.177-2.311,0.898-3.719c-0.627-3.169-3.976-3.602-4.009-3.605L1.552,5.75C1.545,5.772,1.54,5.797,1.537,5.816L1.537,5.816z" stroke="white" fill="white"/><path d="M17.475 13.75c-.458 0-.777-.031-.799-.033C16.292 13.679 16 13.356 16 12.971V7.75C16 7.336 16.336 7 16.75 7h1.785c.057 0 .113.007.168.02.854.196 2.471 1.094 2.471 3.077 0 1.8-.889 3.066-2.502 3.565-.043.013-.087.022-.132.028C18.154 13.736 17.783 13.75 17.475 13.75zM17.5 8.5v3.75c.233-.001.508-.011.792-.041.943-.314 1.382-.987 1.382-2.112 0-1.14-.964-1.514-1.238-1.597H17.5zM8.508 17.002c-.145 0-.301-.03-.462-.106-.037-.017-.072-.037-.105-.06-.133-.092-.188-.146-.188-.146-.1-.091-.347-.3-.669-.571-1.391-1.176-2.79-2.373-3.273-2.974-.95-1.182-1.22-3.097-.026-4.258 0 0 0 0 0 0 1.052-1.021 3.123-1.229 4.71-.083.709-.508 2.042-1.174 3.592-.564.983.388 1.639 1.109 1.848 2.033.225.998-.112 2.129-.881 2.953-1.213 1.293-3.802 3.455-3.912 3.547C9.009 16.894 8.781 17.002 8.508 17.002zM8.193 15.611C8.183 15.62 8.171 15.63 8.16 15.64 8.163 15.638 8.174 15.628 8.193 15.611zM8.766 15.584h.01H8.766zM4.83 9.964c-.597.581-.291 1.693.149 2.241.433.538 2.216 2.044 3.072 2.768.173.146.325.275.448.38.751-.637 2.554-2.188 3.458-3.151.427-.457.629-1.085.513-1.597-.099-.438-.413-.763-.934-.968-1.336-.528-2.496.653-2.508.665-.14.146-.332.229-.534.23C8.301 10.51 8.1 10.454 7.957 10.312 6.912 9.259 5.407 9.404 4.83 9.964L4.83 9.964z" stroke="white" fill="white"/></svg>